<?xml version="1.0" encoding="UTF-8"?>
<svg version="1.1" xmlns="http://www.w3.org/2000/svg" width="1920" height="510">
<path d="M0 0 C22.82833925 -0.07037128 45.65666038 -0.12312499 68.48508644 -0.15543652 C79.08693717 -0.17084429 89.68872014 -0.19181598 100.29052734 -0.22631836 C109.5410811 -0.25640865 118.79158575 -0.27561913 128.04218709 -0.28226548 C132.93120817 -0.28614482 137.82008883 -0.29513151 142.70906448 -0.31719017 C182.45427068 -0.48947332 182.45427068 -0.48947332 200 3 C200.76586048 3.14957972 201.53172096 3.29915943 202.32078934 3.45327187 C238.5506902 10.65369457 272.86311116 29.02043183 294 60 C306.50223581 78.98579243 314.32502358 102.19753556 315 125 C315.02046387 125.69109863 315.04092773 126.38219727 315.06201172 127.09423828 C316.30368369 176.42247922 301.06825201 226.11581211 269 264 C268.28585937 264.84433594 267.57171875 265.68867188 266.8359375 266.55859375 C264.61126343 269.09572204 262.32470855 271.55406432 260 274 C259.47986328 274.55268555 258.95972656 275.10537109 258.42382812 275.67480469 C219.87949276 316.38479795 164.5442519 338.72716902 109 342 C103.2517694 342.13428075 97.50632746 342.12698272 91.75683594 342.11352539 C90.05065411 342.11324275 88.34447216 342.11340274 86.63829041 342.1139679 C82.04202932 342.11425289 77.44579473 342.10840459 72.84953976 342.10139394 C68.03293431 342.09511054 63.21632815 342.09455267 58.39971924 342.09336853 C49.29466787 342.09026985 40.18962862 342.0820763 31.08458257 342.07201904 C20.71207282 342.06081231 10.33956247 342.05533599 -0.03295183 342.05032361 C-21.35530796 342.03989237 -42.67765322 342.02232144 -64 342 C-63.42076991 334.16307647 -62.33768915 326.51544028 -60.93383789 318.78662109 C-60.72542267 317.6192894 -60.51700745 316.4519577 -60.30227661 315.24925232 C-58.38742074 304.57028726 -56.42194137 293.90016429 -54.43950748 283.23354149 C-52.97879993 275.37108232 -51.54483995 267.50473905 -50.1458016 259.63106668 C-49.15464484 254.0661848 -48.13255937 248.50750741 -47.08797258 242.95241034 C-46.46709623 239.64588412 -45.86413799 236.33853948 -45.28624153 233.0240593 C-44.63859137 229.32612833 -43.94081327 225.64096492 -43.23071289 221.95458984 C-43.05316971 220.87278946 -42.87562653 219.79098907 -42.69270325 218.67640686 C-40.95018606 210.08697709 -36.77860854 206.25758331 -30 201 C-28.60258443 199.73590425 -27.21582817 198.45975303 -25.84765625 197.1640625 C-25.21666016 196.57496094 -24.58566406 195.98585937 -23.93554688 195.37890625 C-23.31744141 194.80011719 -22.69933594 194.22132813 -22.0625 193.625 C-21.41732422 193.02300781 -20.77214844 192.42101562 -20.10742188 191.80078125 C-16.69041631 188.63103908 -16.69041631 188.63103908 -13.42358398 185.31005859 C-12 184 -12 184 -10 184 C-9.71382812 183.42765625 -9.42765625 182.8553125 -9.1328125 182.265625 C-8.40675888 180.81351775 -7.67305249 179.3651968 -6.9296875 177.921875 C-4.35130821 172.61232358 -3.25078089 168.90010046 -4 163 C-6.3614656 156.93791059 -10.12893139 151.72073451 -13.9375 146.5 C-14.9696291 145.0744934 -15.99959227 143.64741597 -17.02734375 142.21875 C-17.47843506 141.59935547 -17.92952637 140.97996094 -18.39428711 140.34179688 C-18.92417236 139.56900391 -19.45405762 138.79621094 -20 138 C-20.6472115 137.24027799 -20.6472115 137.24027799 -21.30749798 136.46520805 C-24.49963325 132.29229487 -25.34755183 129.43194541 -24.6968689 124.19204712 C-24.29025152 121.91322597 -23.84897462 119.64042163 -23.38037109 117.37353516 C-23.14862183 116.1271225 -22.91687256 114.88070984 -22.67810059 113.5965271 C-22.04472402 110.19442892 -21.37292572 106.80096734 -20.69360304 103.4077878 C-19.98849433 99.85220906 -19.31871332 96.28998449 -18.64492798 92.72836304 C-17.50979091 86.75444054 -16.3522136 80.78525139 -15.17822266 74.81884766 C-13.52148274 66.39897898 -11.90380511 57.97196417 -10.29466128 49.54288793 C-8.02047644 37.64039182 -5.726991 25.74160188 -3.39599609 13.85009766 C-3.05297958 12.08439423 -3.05297958 12.08439423 -2.70303345 10.28302002 C-2.49249329 9.21482025 -2.28195313 8.14662048 -2.06503296 7.04605103 C-1.79119813 5.6485282 -1.79119813 5.6485282 -1.51183128 4.2227726 C-1 2 -1 2 0 0 Z M68 65 C66.67407059 68.7978335 65.6068387 72.50053915 64.85498047 76.45117188 C64.65492401 77.49245239 64.45486755 78.53373291 64.24874878 79.60656738 C64.04033356 80.71608765 63.83191833 81.82560791 63.6171875 82.96875 C63.39805695 84.12242065 63.17892639 85.27609131 62.95315552 86.46472168 C62.4922178 88.89844649 62.03343256 91.33257983 61.57666016 93.76708984 C60.87724753 97.48804289 60.16756015 101.20693691 59.45703125 104.92578125 C59.00979271 107.29415309 58.56315777 109.66263901 58.1171875 112.03125 C57.90472382 113.14077026 57.69226013 114.25029053 57.47335815 115.39343262 C57.27960602 116.43471313 57.08585388 117.47599365 56.88623047 118.54882812 C56.62880569 119.91400574 56.62880569 119.91400574 56.36618042 121.3067627 C55.62722877 126.74171233 55.5646898 130.15369533 58.8515625 134.64453125 C59.45613281 135.48693359 60.06070313 136.32933594 60.68359375 137.19726562 C61.32425781 138.06029297 61.96492188 138.92332031 62.625 139.8125 C63.86812561 141.52666381 65.11031996 143.2415034 66.3515625 144.95703125 C66.96032227 145.79314941 67.56908203 146.62926758 68.19628906 147.49072266 C74.12587922 155.73981952 78.19984425 161.51636083 77 172 C73.96900398 183.57461606 62.39107132 192.21401192 53.75 199.8125 C53.15058594 200.34617188 52.55117187 200.87984375 51.93359375 201.4296875 C50 203 50 203 47.47265625 204.5703125 C39.65818366 210.05536081 38.36549084 216.35914878 36.77197266 225.27392578 C36.39353111 227.53136178 36.02386268 229.79027918 35.66113281 232.05029297 C34.9151662 236.61498187 34.03178373 241.15163591 33.1484375 245.69140625 C32.8211504 247.37922066 32.49392071 249.06704621 32.16674805 250.75488281 C32.00459808 251.59104126 31.84244812 252.42719971 31.67538452 253.28869629 C30.89165911 257.34287105 30.1187414 261.39895865 29.35546875 265.45703125 C29.21825409 266.17476212 29.08103943 266.89249298 28.93966675 267.63197327 C28.40791539 270.4738793 28 273.10092653 28 276 C38.88482192 276.07004567 49.76958869 276.12308471 60.65459156 276.15543652 C65.71097181 276.17097729 70.76719591 276.19199895 75.82348633 276.22631836 C80.71889937 276.25933129 85.61416388 276.27693967 90.50967979 276.28463173 C92.36123678 276.29010109 94.21278725 276.30077666 96.06427956 276.31719017 C134.12554578 276.64064871 166.41872148 265.41843799 195 240 C195.65613281 239.42894531 196.31226563 238.85789063 196.98828125 238.26953125 C220.5076554 216.43412183 231.65551992 182.04051013 233.34375 150.8203125 C233.79762148 136.14855089 231.58884022 122.23198408 225 109 C224.53078125 108.02675781 224.0615625 107.05351563 223.578125 106.05078125 C214.3058755 88.49318009 197.74751209 76.86435426 179.15283203 70.64501953 C161.7831014 65.44079767 144.09178726 64.84295351 126.10546875 64.90234375 C124.4201105 64.90421368 122.73475169 64.90563486 121.0493927 64.90663147 C116.65846195 64.91041143 112.26756539 64.92020194 107.87664795 64.93133545 C103.37805646 64.94164793 98.87945933 64.94614996 94.38085938 64.95117188 C85.58722407 64.96182924 76.79361631 64.97884986 68 65 Z " fill="#FF5404" transform="translate(67,4)"/>
<path d="M0 0 C1.09828125 0.35191406 2.1965625 0.70382813 3.328125 1.06640625 C19.52577973 6.77325437 31.9890249 16.69447847 40 32 C40.886875 31.21625 41.77375 30.4325 42.6875 29.625 C44.120516 28.41135226 45.55874086 27.20384707 47 26 C47.88816406 25.24976563 48.77632812 24.49953125 49.69140625 23.7265625 C63.68980805 12.39196896 79.61669224 4.63263762 97 0 C97.6501709 -0.17644043 98.3003418 -0.35288086 98.97021484 -0.53466797 C122.44045129 -6.56816315 151.32442019 -5.45483196 173 6 C176.49392352 8.14777982 179.76282631 10.48470477 183 13 C183.63679688 13.47179687 184.27359375 13.94359375 184.9296875 14.4296875 C197.03826641 23.95510291 202.95236216 39.39191226 205.5546875 54.14453125 C207.18419869 68.25266759 206.40576385 82.38885877 204.0859375 96.36328125 C203.86866938 97.7095148 203.65178911 99.05581098 203.4352417 100.40216064 C199.80070037 122.7995581 195.82052301 145.14247266 191.9072876 167.49237061 C191.02099589 172.55918729 190.13795732 177.62656876 189.25494766 182.69395828 C188.40169515 187.58907395 187.54692835 192.48392418 186.69164276 197.378685 C186.28460746 199.70866411 185.87793174 202.03870607 185.47162628 204.36881256 C184.90866513 207.59541889 184.34377974 210.82168225 183.77832031 214.04785156 C183.61210678 215.00242752 183.44589325 215.95700348 183.27464294 216.94050598 C183.04361626 218.25510048 183.04361626 218.25510048 182.80792236 219.59625244 C182.67522572 220.35480656 182.54252907 221.11336067 182.40581131 221.89490128 C182.01051862 223.94543587 181.50648433 225.97406267 181 228 C158.89 228 136.78 228 114 228 C115.12497029 217.87526737 115.12497029 217.87526737 115.87280273 213.60569763 C116.12512161 212.15304001 116.12512161 212.15304001 116.38253784 210.67103577 C116.56438629 209.64062668 116.74623474 208.61021759 116.93359375 207.54858398 C117.1272049 206.43845947 117.32081604 205.32833496 117.52029419 204.18457031 C118.15686202 200.53796944 118.79723653 196.89204738 119.4375 193.24609375 C119.88237577 190.69984514 120.32695125 188.15354405 120.77124023 185.60719299 C122.05834812 178.23399235 123.34919899 170.86145098 124.64067078 163.48901367 C126.39675848 153.46300494 128.15004043 143.4365087 129.90042114 133.40950203 C130.55295046 129.67573612 131.20791044 125.94240211 131.86303711 122.20909119 C132.26426223 119.91341912 132.66539044 117.61773012 133.06640625 115.32202148 C133.2482547 114.28958817 133.43010315 113.25715485 133.61746216 112.19343567 C136.19190241 97.4149495 138.77089357 81.48228377 130.46484375 68 C125.53005717 61.26237139 119.15674822 57.66121417 111 56 C93.85557118 54.18176972 78.22432933 57.9849159 64.375 68.5625 C45.31138301 86.11385891 42.44208397 114.01944662 38.26953125 138.078125 C37.82987982 140.58310004 37.38957638 143.08796073 36.94865417 145.5927124 C35.91467872 151.47395792 34.88620055 157.35614586 33.8608138 163.23889327 C31.91021389 174.42842157 29.94708389 185.61575267 27.98276329 196.80287933 C27.33940196 200.47357148 26.69945791 204.14484701 26.06001282 207.81622314 C25.66874767 210.05230026 25.27740956 212.28836461 24.88598633 214.52441406 C24.62028336 216.05783699 24.62028336 216.05783699 24.34921265 217.62223816 C24.18533554 218.55548416 24.02145844 219.48873016 23.85261536 220.45025635 C23.71124555 221.26130955 23.56987574 222.07236275 23.42422199 222.90799332 C23 225 23 225 22 228 C-0.11 228 -22.22 228 -45 228 C-40.73619553 202.14529762 -36.27489536 176.33318244 -31.69287109 150.5333252 C-30.34120051 142.92185265 -28.99162402 135.31001026 -27.64397621 127.69782448 C-27.17914534 125.07478815 -26.71283405 122.45201815 -26.24638367 119.82926941 C-25.96261758 118.22823115 -25.67890779 116.62718292 -25.39526367 115.02612305 C-25.26802414 114.31303482 -25.14078461 113.59994659 -25.00968933 112.86524963 C-22.32301859 97.66467275 -19.9507537 80.37741049 -28.5078125 66.56640625 C-33.32661023 60.45886029 -39.53054664 57.66083369 -47 56 C-63.46660216 54.5250449 -77.49553683 56.97629569 -91 67 C-91.65613281 67.47308594 -92.31226563 67.94617188 -92.98828125 68.43359375 C-114.21217002 85.04563972 -116.45273325 117.71359821 -120.765625 142.16015625 C-121.20790174 144.64700005 -121.65059698 147.13376946 -122.09368896 149.62046814 C-123.13117616 155.4487582 -124.16450773 161.27777245 -125.19572806 167.10717434 C-126.69548147 175.58337536 -128.20386604 184.05804125 -129.71115112 192.53290558 C-131.8128249 204.3543221 -133.90556952 216.17728772 -136 228 C-158.44 228 -180.88 228 -204 228 C-202.700625 220.966875 -201.40125 213.93375 -200.0625 206.6875 C-195.71246235 183.06921223 -191.5062395 159.42677901 -187.36889648 135.77037048 C-186.61660289 131.47555218 -185.85403144 127.18295196 -185.07104492 122.89361572 C-184.01895169 117.11442826 -182.98384144 111.3323063 -181.95288086 105.54931641 C-181.6622451 103.92035431 -181.6622451 103.92035431 -181.36573792 102.25848389 C-180.94881331 99.92161994 -180.5319651 97.58474235 -180.11518669 95.24785233 C-179.45547165 91.54901575 -178.79547369 87.85022976 -178.13539124 84.15145874 C-176.25999656 73.64255314 -174.38488856 63.13359647 -172.51049805 52.62451172 C-171.3610113 46.1797404 -170.21097768 39.73506679 -169.06064034 33.29044724 C-168.6230728 30.83845792 -168.18569753 28.38643429 -167.74851799 25.93437576 C-167.13872879 22.51427097 -166.52829989 19.09428094 -165.91772461 15.67431641 C-165.7374472 14.66229156 -165.5571698 13.65026672 -165.37142944 12.60757446 C-165.20466202 11.67421265 -165.03789459 10.74085083 -164.86607361 9.77920532 C-164.72210616 8.97217478 -164.57813871 8.16514423 -164.42980862 7.33365822 C-163.97868605 4.88427527 -163.48844291 2.44221455 -163 0 C-141.88 0 -120.76 0 -99 0 C-99.61681444 5.55132996 -100.25866681 11.04284541 -101.0625 16.5625 C-101.23910156 17.78066406 -101.41570312 18.99882812 -101.59765625 20.25390625 C-101.73042969 21.16011719 -101.86320312 22.06632812 -102 23 C-101.13761719 22.31035156 -100.27523438 21.62070313 -99.38671875 20.91015625 C-72.52300275 -0.004631 -33.31885616 -10.9740677 0 0 Z " fill="#FF5404" transform="translate(1360,118)"/>
<path d="M0 0 C22.77 0 45.54 0 69 0 C70.28132812 5.64480469 71.56265625 11.28960937 72.8828125 17.10546875 C84.55627206 68.53103472 84.55627206 68.53103472 96.28826904 119.94326782 C96.88728213 122.56114968 97.48508638 125.17930302 98.08184814 127.79769897 C98.89973609 131.38393614 99.72085284 134.96941758 100.54296875 138.5546875 C100.78056412 139.59936691 101.01815948 140.64404633 101.26295471 141.72038269 C101.47935104 142.66069839 101.69574738 143.6010141 101.91870117 144.56982422 C102.19794685 145.79051102 102.19794685 145.79051102 102.48283386 147.03585815 C102.94350497 149.05761789 102.94350497 149.05761789 104 151 C104.42595459 150.26813477 104.85190918 149.53626953 105.29077148 148.78222656 C113.55048896 134.6050831 121.87574117 120.47612621 130.42306519 106.47009277 C136.18726235 97.02200771 141.86362359 87.52484571 147.5 78 C154.10967655 66.83190855 160.7937234 55.7133909 167.55297852 44.63525391 C171.4815899 38.18443982 175.36953104 31.71179271 179.21484375 25.2109375 C179.65144318 24.47313049 180.0880426 23.73532349 180.53787231 22.97515869 C182.67447525 19.36248461 184.80674597 15.74733153 186.93359375 12.12890625 C187.70435953 10.8228768 188.47518953 9.51688524 189.24609375 8.2109375 C189.59735825 7.61026459 189.94862274 7.00959167 190.31053162 6.39071655 C191.72794507 3.99429338 193.02160908 1.97839092 195 0 C197.67019653 -0.24050903 197.67019653 -0.24050903 201.10205078 -0.22705078 C202.38322784 -0.22689972 203.66440491 -0.22674866 204.98440552 -0.22659302 C206.38804274 -0.21637895 207.7916784 -0.20594695 209.1953125 -0.1953125 C210.62734785 -0.19158291 212.05938575 -0.18873569 213.49142456 -0.18673706 C217.26278717 -0.17909627 221.03399604 -0.15944408 224.80529785 -0.1373291 C228.65272949 -0.11688019 232.50018594 -0.1077374 236.34765625 -0.09765625 C243.89850764 -0.0761985 251.44923229 -0.04205732 259 0 C257.42211303 4.07634048 255.49178382 7.76268825 253.24609375 11.50390625 C252.8734993 12.13086395 252.50090485 12.75782166 252.11701965 13.40377808 C250.89417514 15.45889288 249.66598995 17.5107557 248.4375 19.5625 C247.57826961 21.00322871 246.71922254 22.44406677 245.86035156 23.88500977 C239.67072926 34.25750501 233.4193696 44.59224124 227.13647461 54.90844727 C222.56110898 62.42125394 218.01778715 69.95242702 213.5 77.5 C208.63588891 85.62615385 203.73764387 93.7306553 198.81152344 101.81933594 C191.89330312 113.17998291 185.06814463 124.59252758 178.29309082 136.03909302 C172.41369966 145.9698256 166.46582119 155.85549477 160.45800781 165.70898438 C154.73547939 175.09842764 149.10073693 184.53746233 143.5 194 C136.78219429 205.34885514 129.99250553 216.65045924 123.1328125 227.9140625 C118.55894613 235.42516787 114.01689437 242.95449535 109.5 250.5 C102.00418885 263.01406579 94.45781519 275.49681975 86.86083984 287.94970703 C85.71379076 289.82995254 84.56800836 291.7109723 83.42431641 293.59326172 C75.67408761 306.3325151 67.26569363 318.13944002 57 329 C56.18015625 329.89589844 55.3603125 330.79179687 54.515625 331.71484375 C34.95254849 352.34868037 8.47158252 361.71060817 -19.55859375 363.1875 C-40.26996768 363.563643 -64.08995156 359.39989587 -80.375 345.5625 C-81.24125 344.716875 -82.1075 343.87125 -83 343 C-82.35819187 339.39920633 -80.86225118 337.00688446 -78.8125 334 C-78.09578125 332.94683594 -77.3790625 331.89367187 -76.640625 330.80859375 C-72.26761731 324.48347269 -67.85364016 318.18682961 -63.43359375 311.89453125 C-59.25910425 305.95030804 -55.12429296 299.97913371 -51 294 C-48.65220363 295.11495769 -46.86891905 296.11180434 -44.875 297.8125 C-35.05081428 305.28742392 -23.25807152 308.64591197 -10.9765625 307.7890625 C-7.9127743 307.3716312 -4.99474985 306.76684969 -2 306 C-0.75089844 305.69449219 -0.75089844 305.69449219 0.5234375 305.3828125 C10.31398429 301.80245073 15.58135453 291.30106812 21 283 C21.56235352 282.14100098 22.12470703 281.28200195 22.70410156 280.39697266 C26.88053631 273.97966958 30.94955975 267.49731503 35 261 C36.35920018 258.82541155 37.71857944 256.65093503 39.078125 254.4765625 C41.06378432 251.30036001 43.04820442 248.1234447 45.02685547 244.94287109 C45.61869629 243.99234863 46.21053711 243.04182617 46.8203125 242.0625 C47.36977539 241.16789063 47.91923828 240.27328125 48.48535156 239.3515625 C50 237 50 237 52.4921875 233.9375 C56.00035473 227.10293587 52.36590044 217.58819473 50.57348633 210.47680664 C50.32540317 209.46884726 50.07732 208.46088787 49.82171917 207.42238426 C48.99825824 204.08334705 48.16510255 200.74680749 47.33203125 197.41015625 C46.74214005 195.02531418 46.15292229 192.64030545 45.56433105 190.25514221 C44.3079539 185.16884548 43.04769273 180.08352908 41.78384399 174.99908447 C39.8040121 167.03355662 37.83371686 159.06568803 35.8659668 151.09716797 C35.70201467 150.43325751 35.53806255 149.76934705 35.36914217 149.08531809 C34.7045614 146.39404088 34.04002743 143.70275213 33.37563044 141.01142955 C32.54014622 137.6270884 31.70438345 134.24281654 30.86797523 130.85870361 C24.26301723 104.13498182 17.76285856 77.38645805 11.3125 50.625 C10.84145326 48.67131252 10.37039421 46.717628 9.89932251 44.76394653 C9.44239572 42.86875586 8.98547622 40.97356343 8.52856445 39.07836914 C8.3101634 38.17249211 8.09176235 37.26661509 7.86674309 36.33328724 C6.85704528 32.14480543 5.84788401 27.95619635 4.84020996 23.76722717 C4.66133082 23.02411002 4.48245169 22.28099287 4.29815197 21.51535702 C3.82538003 19.55120056 3.35295897 17.58695965 2.88056946 15.62271118 C2.41638869 13.71304597 1.94809225 11.80412592 1.44466209 9.90443039 C0.53669011 6.45042795 0 3.59846994 0 0 Z " fill="#FF5404" transform="translate(415,118)"/>
<path d="M0 0 C0.69383789 0.17160645 1.38767578 0.34321289 2.10253906 0.52001953 C20.20511646 5.17675151 36.40651865 14.25785889 47 30 C59.98137705 51.98886317 58.89162062 77.33835402 54.5546875 101.68359375 C54.28910842 103.22040857 54.02435352 104.75736599 53.7603302 106.29444885 C53.01883066 110.58933235 52.26188334 114.88136024 51.50085068 119.17282104 C50.97957214 122.11531026 50.46133792 125.05832323 49.9437561 128.00146484 C47.42101401 142.3387755 44.86634916 156.67029153 42.30218506 171.00024414 C41.47078395 175.64935394 40.64135789 180.29881519 39.81198406 184.94828701 C38.81679686 190.5268538 37.82057746 196.10523609 36.82421875 201.68359375 C36.63666204 202.73408842 36.44910534 203.78458309 36.2558651 204.86691093 C35.72803106 207.82210206 35.19946839 210.77716185 34.6706543 213.73217773 C34.51536255 214.60206833 34.3600708 215.47195892 34.20007324 216.36820984 C33.98383553 217.57522552 33.98383553 217.57522552 33.76322937 218.80662537 C33.63920588 219.50006766 33.5151824 220.19350996 33.38740063 220.90796566 C32.94879431 223.27652012 32.47240895 225.63795523 32 228 C11.21 228 -9.58 228 -31 228 C-30.34 223.38 -29.68 218.76 -29 214 C-28.64520458 210.66492303 -28.2923989 207.33950322 -28 204 C-28.57105469 204.6290625 -29.14210938 205.258125 -29.73046875 205.90625 C-45.43754589 222.48732984 -66.19210866 230.51013264 -88.77560425 231.22897339 C-92.39190012 231.31835676 -96.0077585 231.35167208 -99.625 231.375 C-100.66971466 231.38705475 -100.66971466 231.38705475 -101.73553467 231.39935303 C-120.37909934 231.56226275 -141.87475925 228.10436729 -156.625 215.8125 C-157.40875 214.884375 -158.1925 213.95625 -159 213 C-159.93972656 211.93458984 -159.93972656 211.93458984 -160.8984375 210.84765625 C-172.03987691 197.73886229 -175.2317178 183.84137227 -174 167 C-171.30284097 145.7177295 -161.21164089 127.59360673 -144.3125 114.3125 C-121.38910857 97.88068845 -93.95077496 93.80731548 -66.37109375 93.90234375 C-64.76969955 93.90421197 -63.16830477 93.90563397 -61.56690979 93.90663147 C-57.37977482 93.91042481 -53.1926753 93.92022743 -49.0055542 93.93133545 C-44.72180663 93.94161848 -40.43805326 93.94614377 -36.15429688 93.95117188 C-27.7695151 93.96185297 -19.38476198 93.97889054 -11 94 C-10.96775321 91.6131717 -10.94429115 89.22678602 -10.92578125 86.83984375 C-10.9158313 86.16997437 -10.90588135 85.50010498 -10.89562988 84.80993652 C-10.84541436 76.15965142 -13.103423 67.55958925 -19 61 C-33.16120271 49.88773951 -52.33515237 49.56035568 -69.50390625 51.42578125 C-86.64924225 53.71718158 -102.6491519 59.6609451 -117.62890625 68.1796875 C-121 70 -121 70 -125 71 C-129.95 55.82 -134.9 40.64 -140 25 C-104.99524221 -3.00380623 -42.76045828 -10.77950559 0 0 Z M-101 145 C-106.04965625 151.56313866 -108.37162928 157.83129097 -107.875 166.125 C-107.07231164 172.14977583 -104.56071673 175.4747541 -100.25 179.6875 C-89.59006086 187.27245669 -76.02800348 187.09460776 -63.48828125 185.57421875 C-50.35086025 182.94027088 -39.18586682 176.69437017 -30 167 C-29.319375 166.28972656 -28.63875 165.57945312 -27.9375 164.84765625 C-21.37795941 157.29051887 -20.38434132 148.73464059 -18.92578125 139.109375 C-18.75087158 137.95920898 -18.57596191 136.80904297 -18.39575195 135.62402344 C-18.26515381 134.7580957 -18.13455566 133.89216797 -18 133 C-25.32825719 132.94893402 -32.65646782 132.91411393 -39.98486328 132.89013672 C-42.4734875 132.88013187 -44.96210012 132.86652378 -47.45068359 132.84912109 C-51.04527667 132.82462888 -54.63971317 132.81346136 -58.234375 132.8046875 C-59.33174988 132.79436493 -60.42912476 132.78404236 -61.55975342 132.77340698 C-75.33014472 132.7714449 -91.00281357 134.51514594 -101 145 Z " fill="#FF5404" transform="translate(1100,118)"/>
<path d="M0 0 C8.91467093 7.71978281 15.31631023 15.82024017 19.40625 26.93359375 C19.80070313 27.990625 20.19515625 29.04765625 20.6015625 30.13671875 C26.73018418 49.9368811 24.06822455 71.20807302 20.44921875 91.22265625 C20.13752419 92.99148003 19.82666756 94.76045164 19.51657104 96.52955627 C18.67287266 101.322798 17.81439166 106.11327282 16.95155716 110.90310287 C16.39749885 113.9822274 15.84661334 117.06190461 15.29660034 120.14175415 C12.96886881 133.17018482 10.61387261 146.19352617 8.24267578 159.21411133 C7.21357864 164.86529025 6.18943172 170.517355 5.16642189 176.16963863 C4.36905767 180.57158702 3.56887299 184.97301904 2.76783371 189.3743 C2.38810363 191.46299511 2.00933225 193.55186475 1.63154984 195.64091301 C1.1109748 198.51758031 0.58653253 201.39351555 0.06103516 204.26928711 C-0.1695459 205.55046669 -0.1695459 205.55046669 -0.40478516 206.85752869 C-1.47952115 212.70513605 -1.47952115 212.70513605 -2.59375 214.93359375 C-24.37375 214.93359375 -46.15375 214.93359375 -68.59375 214.93359375 C-67.92956555 206.9633804 -67.11951658 199.40800613 -65.66015625 191.60058594 C-65.4665451 190.5387912 -65.27293396 189.47699646 -65.07345581 188.38302612 C-64.43970563 184.91450858 -63.79795682 181.44752219 -63.15625 177.98046875 C-62.71110274 175.5506613 -62.26653214 173.12074813 -61.82250977 170.69073486 C-60.65731017 164.32094713 -59.48561962 157.95237221 -58.31213379 151.58410645 C-56.43260345 141.37907114 -54.56224806 131.17235321 -52.69332886 120.96537018 C-52.04142637 117.41095413 -51.38628945 113.85714575 -50.73071289 110.30340576 C-50.32950406 108.11862741 -49.92837667 105.93383409 -49.52734375 103.74902344 C-49.3454953 102.76805695 -49.16364685 101.78709045 -48.97628784 100.77639771 C-46.15278218 85.34710483 -43.83152885 69.27076143 -52.15625 55.12109375 C-57.32740588 47.96103176 -65.02264252 44.37184442 -73.59375 42.93359375 C-76.91243245 42.67139459 -80.20368754 42.65318191 -83.53125 42.68359375 C-84.37365234 42.67585938 -85.21605469 42.668125 -86.08398438 42.66015625 C-102.81241055 42.71166795 -116.33739397 49.66532597 -128.62109375 60.765625 C-144.95077636 77.76182527 -147.72115718 103.63101222 -151.640625 125.71484375 C-152.10098328 128.26664656 -152.56228302 130.81827968 -153.0244751 133.36975098 C-154.10633291 139.35212938 -155.1805487 145.33582715 -156.25033784 151.32037401 C-158.2875434 162.71564541 -160.34038777 174.10809188 -162.39774323 185.4997406 C-163.07140959 189.24005857 -163.73949456 192.98134258 -164.40692139 196.72277832 C-164.81506565 198.9929488 -165.22336193 201.26309195 -165.63183594 203.53320312 C-165.81675095 204.57823502 -166.00166595 205.62326691 -166.19218445 206.69996643 C-166.36303055 207.64440109 -166.53387665 208.58883575 -166.7098999 209.56188965 C-166.85734524 210.38693748 -167.00479057 211.21198532 -167.15670395 212.06203461 C-167.59375 213.93359375 -167.59375 213.93359375 -168.59375 214.93359375 C-170.64931661 215.02773062 -172.70815181 215.05102373 -174.76586914 215.04711914 C-175.73169167 215.04733818 -175.73169167 215.04733818 -176.71702576 215.04756165 C-178.85435303 215.0468626 -180.99159413 215.03907066 -183.12890625 215.03125 C-184.60721285 215.02938579 -186.08552007 215.0279619 -187.56382751 215.02696228 C-191.46173802 215.02313734 -195.35961149 215.01330727 -199.25750732 215.0022583 C-203.23221333 214.99204367 -207.20692529 214.98746455 -211.18164062 214.98242188 C-218.985694 214.97168497 -226.78971682 214.95460884 -234.59375 214.93359375 C-234.04171542 205.79651909 -232.65728941 196.92952357 -230.97680664 187.94018555 C-230.70667121 186.47111586 -230.43705367 185.00195087 -230.16790771 183.53269958 C-229.4390358 179.56193152 -228.70302402 175.59251727 -227.96572804 171.62330604 C-227.18266729 167.40044826 -226.40646561 163.17632971 -225.62950134 158.9523468 C-224.14797717 150.9036122 -222.66062849 142.8559658 -221.1710543 134.80871755 C-219.35354781 124.98856596 -217.54276047 115.16717821 -215.73242188 105.34570312 C-215.08681521 101.84334711 -214.44117479 98.34099733 -213.79550171 94.83865356 C-213.636803 93.9777855 -213.47810429 93.11691744 -213.31459653 92.22996247 C-212.20357635 86.20400514 -211.09091043 80.17835302 -209.97769165 74.15280151 C-207.11629246 58.66115016 -204.2641418 43.16800678 -201.45654297 27.66650391 C-201.33640001 27.00350001 -201.21625705 26.34049612 -201.09247339 25.6574012 C-199.88084666 18.97058565 -198.67276701 12.28315026 -197.47047424 5.59465027 C-197.09680156 3.52509015 -196.72310052 1.45553514 -196.34936523 -0.61401367 C-196.1836672 -1.54193159 -196.01796917 -2.46984951 -195.84724998 -3.42588615 C-195.69510851 -4.26653681 -195.54296703 -5.10718746 -195.38621521 -5.97331238 C-195.25621848 -6.6973334 -195.12622175 -7.42135443 -194.99228573 -8.16731548 C-194.59375 -10.06640625 -194.59375 -10.06640625 -193.59375 -13.06640625 C-172.47375 -13.06640625 -151.35375 -13.06640625 -129.59375 -13.06640625 C-130.58375 -7.12640625 -131.57375 -1.18640625 -132.59375 4.93359375 C-132.59375 6.58359375 -132.59375 8.23359375 -132.59375 9.93359375 C-131.82933594 9.37671875 -131.06492187 8.81984375 -130.27734375 8.24609375 C-116.60032384 -1.49734282 -102.84910456 -8.62330003 -86.59375 -13.06640625 C-85.93777832 -13.24574707 -85.28180664 -13.42508789 -84.60595703 -13.60986328 C-57.11666187 -20.66972562 -22.72951986 -18.10830724 0 0 Z " fill="#FF5404" transform="translate(892.59375,131.06640625)"/>
<path d="M0 0 C0.71364716 -0.00067474 1.42729431 -0.00134949 2.16256714 -0.00204468 C28.48025735 0.03746527 54.80014496 5.44563382 74.046875 24.61328125 C74.89765625 25.48339844 75.7484375 26.35351562 76.625 27.25 C77.62273437 28.19939453 77.62273437 28.19939453 78.640625 29.16796875 C82.71971249 33.32974045 85.35272023 38.10925614 88 43.25 C88.34643555 43.91475342 88.69287109 44.57950684 89.04980469 45.2644043 C89.37110352 45.91965088 89.69240234 46.57489746 90.0234375 47.25 C90.45148682 48.11625 90.45148682 48.11625 90.88818359 49 C91.99112584 52.36803041 92.24944386 55.72830139 92.625 59.25 C85.64199114 62.79937728 78.65364787 66.33799648 71.65825939 69.86290073 C68.41033467 71.4999212 65.16437856 73.14061765 61.92260742 74.78979492 C58.79525088 76.38059562 55.66313864 77.96163332 52.5274601 79.53596306 C50.74756702 80.43279101 48.97277086 81.33971127 47.19804382 82.24671936 C46.11714981 82.78735519 45.0362558 83.32799103 43.92260742 83.88500977 C42.96996506 84.36688248 42.01732269 84.84875519 41.03581238 85.3452301 C38.625 86.25 38.625 86.25 35.625 85.25 C34.3359375 83.09765625 34.3359375 83.09765625 33 80.3125 C27.27398254 69.50604548 20.1598263 62.56644574 8.625 58.25 C-8.5581051 53.10567532 -26.51191918 56.09430205 -42.1484375 64.36328125 C-46.59742603 66.96480844 -50.53132098 69.82427442 -54.375 73.25 C-55.04917969 73.83136719 -55.72335937 74.41273438 -56.41796875 75.01171875 C-70.30382055 87.82322998 -77.69144867 107.52101996 -78.6953125 126.125 C-79.14933687 140.01419755 -77.38146163 152.15002671 -68.375 163.25 C-67.87355469 163.87519531 -67.37210938 164.50039063 -66.85546875 165.14453125 C-59.8757312 172.93942063 -49.25105731 177.55265291 -38.90161133 178.46899414 C-19.29488136 179.34141622 -3.41479108 176.21738714 11.8125 162.9375 C16.72403993 158.32049326 21.21940346 153.34729649 25.625 148.25 C33.32753004 151.87635336 40.5979904 156.11916949 47.84790039 160.56079102 C49.68559368 161.68633242 51.52702961 162.80553476 53.36914062 163.92382812 C59.88465623 167.89040809 66.32751091 171.94250499 72.625 176.25 C71.45786194 179.40726671 70.27374571 182.0008965 68.1640625 184.625 C67.69226562 185.21796875 67.22046875 185.8109375 66.734375 186.421875 C66.24453125 187.02515625 65.7546875 187.6284375 65.25 188.25 C64.76789063 188.85328125 64.28578125 189.4565625 63.7890625 190.078125 C62.84330886 191.26031705 61.8940158 192.4396877 60.94091797 193.6159668 C59.77050221 195.06932351 58.6255405 196.54309632 57.484375 198.01953125 C55.25969805 200.68820885 52.92341711 202.45613604 50.11328125 204.46484375 C48.29060116 205.7724808 46.50039475 207.12570477 44.73046875 208.50390625 C35.65607078 215.45794984 21.3458409 226.25 9.625 226.25 C9.295 226.91 8.965 227.57 8.625 228.25 C6.03692906 229.02040251 3.50599155 229.66634849 0.875 230.25 C0.17761719 230.415 -0.51976562 230.58 -1.23828125 230.75 C-13.81226617 233.62919511 -26.02175977 234.65829506 -38.875 234.625 C-39.66636353 234.62445618 -40.45772705 234.62391235 -41.27307129 234.62335205 C-71.7169569 234.52734605 -100.47247037 226.42976324 -122.8203125 204.82373047 C-141.40764929 186.00872215 -147.63843727 161.49607667 -147.69628906 135.70703125 C-147.59600135 124.78922259 -146.18924669 114.76986184 -143.375 104.25 C-143.09785156 103.11433594 -142.82070312 101.97867188 -142.53515625 100.80859375 C-138.60535288 86.33894908 -131.34261759 72.22430419 -122.375 60.25 C-121.72402344 59.37730469 -121.07304688 58.50460938 -120.40234375 57.60546875 C-95.10255762 25.30686328 -59.97174913 7.17127177 -19.8984375 0.6875 C-13.30255823 -0.09538428 -6.63359817 0.00562533 0 0 Z " fill="#FF5404" transform="translate(1823.375,114.75)"/>
<path d="M0 0 C1.1702623 0.00222061 2.3405246 0.00444122 3.54624939 0.00672913 C4.19013107 0.0065831 4.83401276 0.00643707 5.49740601 0.00628662 C7.63473327 0.00698567 9.77197438 0.01477761 11.9092865 0.02259827 C13.3875931 0.02446248 14.86590032 0.02588637 16.34420776 0.02688599 C20.24211827 0.03071093 24.13999174 0.040541 28.03788757 0.05158997 C32.01259358 0.0618046 35.98730554 0.06638372 39.96202087 0.07142639 C47.76607425 0.0821633 55.57009707 0.09923942 63.37413025 0.12025452 C62.76538354 10.78953211 60.73083986 21.24499236 58.87998962 31.75062561 C58.51655554 33.83271234 58.15351369 35.91486756 57.79083252 37.99708557 C56.80933765 43.62539791 55.82233947 49.25273248 54.83429146 54.87989759 C53.79996007 60.77600691 52.77061956 66.67298745 51.7407074 72.56987 C50.01190136 82.46429411 48.27986674 92.35814836 46.54551697 102.25160217 C44.09908609 116.20709093 41.65845624 130.16358957 39.21900082 144.1202991 C37.32387838 154.96161973 35.42731802 165.8026889 33.53038025 176.64369202 C33.32696455 177.80623992 33.12354885 178.96878783 32.91396904 180.16656446 C31.7454438 186.84414048 30.5761682 193.52158438 29.40579796 200.19883728 C29.05124874 202.22208232 28.69690086 204.24536266 28.34276772 206.26868057 C27.85986028 209.02744245 27.37619562 211.78607049 26.89231873 214.54466248 C26.7519486 215.34747599 26.61157847 216.1502895 26.46695471 216.9774307 C25.81266297 220.70272204 25.1160201 224.41080528 24.37413025 228.12025452 C2.26413025 228.12025452 -19.84586975 228.12025452 -42.62586975 228.12025452 C-42.00997994 221.96135643 -41.36384013 215.99543433 -40.28645325 209.93095398 C-40.08832751 208.79008428 -40.08832751 208.79008428 -39.88619924 207.6261667 C-39.44835541 205.11007575 -39.00539119 202.59491534 -38.56239319 200.07972717 C-38.24492978 198.26169138 -37.92778454 196.44360001 -37.6109314 194.62545776 C-36.75237359 189.70433069 -35.88934522 184.78399718 -35.02547359 179.86380053 C-34.1163852 174.68169531 -33.21136118 169.49888028 -32.30586243 164.31614685 C-30.78160381 155.59515936 -29.25472361 146.87463436 -27.72596741 138.1544342 C-25.58678471 125.95227352 -23.4522329 113.74930629 -21.31867552 101.54616094 C-19.64591814 91.97955794 -17.97198377 82.41316081 -16.29774475 72.84681702 C-16.1214664 71.8395747 -15.94518805 70.83233239 -15.76356792 69.79456758 C-13.81309961 58.65085192 -11.86018444 47.5075751 -9.89926648 36.36569297 C-9.07729552 31.69393691 -8.2591554 27.02153794 -7.44506621 22.34840214 C-7.08711207 20.29666095 -6.72741905 18.24523441 -6.36688614 16.19394493 C-5.94173409 13.77480926 -5.51941262 11.35517364 -5.10052109 8.93494606 C-4.82680616 7.38594392 -4.82680616 7.38594392 -4.54756165 5.8056488 C-4.39215534 4.91614721 -4.23674904 4.02664562 -4.07663345 3.11018944 C-3.39516491 0.10178827 -3.16419063 0.1449075 0 0 Z " fill="#FF5404" transform="translate(1608.6258697509766,117.87974548339844)"/>
<path d="M0 0 C8.50992265 -0.44298778 17.01493978 -0.77907763 25.53358746 -0.98443127 C29.49116802 -1.08307979 33.44079923 -1.21636777 37.39379883 -1.43334961 C62.8510265 -2.79442161 62.8510265 -2.79442161 69.64459229 1.78118896 C73.85537317 6.11243804 76.38056222 11.00912716 78.76211548 16.50717163 C80.54138418 20.09022919 82.94915879 23.01768906 85.49687195 26.08332825 C88.72942088 30.20522273 89.47745795 34.63682611 89.30712891 39.81225586 C88.08444137 48.5217177 83.4920846 54.35730016 77.25 60.1875 C76.57195312 60.84685547 75.89390625 61.50621094 75.1953125 62.18554688 C71.29737458 65.94639002 67.28729454 69.54760066 63.13664246 73.02716064 C60.94387402 74.95087128 60.94387402 74.95087128 59.1822052 77.28689575 C56.01187105 81.13089974 53.55468586 83.6374098 48.61050415 84.79051208 C44.53133332 85.03985526 40.54505456 85.01519267 36.46484375 84.87890625 C34.97558973 84.86208957 33.48628542 84.84929285 31.9969635 84.84031677 C28.10432936 84.80618858 24.21478818 84.71800495 20.32336426 84.61798096 C16.34165279 84.52539012 12.35943417 84.48469868 8.37695312 84.43945312 C0.58323547 84.34334931 -7.20794658 84.19005242 -15 84 C-13.50656888 80.84142769 -12.15273438 79.0340554 -9.4375 76.8125 C-6.3054041 74.16749316 -3.37403913 71.42384916 -0.5 68.5 C2.28117038 65.67582183 5.10149286 62.99989312 8.125 60.4375 C14.94196028 54.50497569 21.266592 48.50763459 22 39 C21.35189129 31.58184428 18.09659065 26.42141504 13.8125 20.5 C13.26013672 19.70980469 12.70777344 18.91960938 12.13867188 18.10546875 C8.68850823 13.20872081 5.06127492 8.48506432 1.29174805 3.83007812 C0 2 0 2 0 0 Z " fill="#FF5404" transform="translate(1626,3)"/>
<path d="M0 0 C0.99 0.8971875 0.99 0.8971875 2 1.8125 C2.33 -0.1675 2.66 -2.1475 3 -4.1875 C9.6 -4.1875 16.2 -4.1875 23 -4.1875 C22.41588989 3.89575748 21.47686772 11.77494316 20.07421875 19.75390625 C19.88535599 20.84283676 19.69649323 21.93176727 19.50190735 23.05369568 C19.10376398 25.33731274 18.70278561 27.62043722 18.29907227 29.90307617 C17.68877288 33.36777379 17.09499091 36.8350459 16.50195312 40.30273438 C16.11037999 42.53663473 15.71783435 44.77036488 15.32421875 47.00390625 C15.15113693 48.0250502 14.97805511 49.04619415 14.79972839 50.09828186 C12.3406793 63.76060807 7.98564971 75.90107259 -3.5625 84.30859375 C-16.82083241 92.48881487 -34.89064596 93.04620229 -49.8125 89.625 C-54.93877189 88.07744622 -59.49808814 85.68872147 -64 82.8125 C-63.47515308 78.25549575 -61.68492697 75.619626 -58.9375 72 C-58.20402344 71.02417969 -57.47054688 70.04835938 -56.71484375 69.04296875 C-56.14894531 68.30691406 -55.58304688 67.57085937 -55 66.8125 C-51.13432317 67.6559204 -47.79080907 69.21130125 -44.21875 70.875 C-37.10759932 73.87971155 -27.81194926 74.13202111 -20.37890625 72.09375 C-14.55503198 69.3634649 -11.52912856 65.45514238 -9.25 59.5 C-8.63125 57.6746875 -8.63125 57.6746875 -8 55.8125 C-8.67546875 56.16183594 -9.3509375 56.51117188 -10.046875 56.87109375 C-10.93890625 57.32613281 -11.8309375 57.78117187 -12.75 58.25 C-13.63171875 58.70246094 -14.5134375 59.15492188 -15.421875 59.62109375 C-22.99114152 63.11901237 -33.00075013 62.98579334 -41.0625 61.09375 C-49.22759918 58.00694421 -54.36768808 53.5029943 -58.0234375 45.5546875 C-61.52790424 35.7141449 -60.1019962 25.91861769 -55.75 16.625 C-50.26924157 6.48718093 -42.21855459 -0.23116312 -31.25 -4.125 C-20.52732198 -6.88274946 -9.09185098 -6.62947467 0 0 Z M-35.75 21.9375 C-38.60095589 26.21393384 -38.59280172 30.85837132 -38 35.8125 C-36.11146658 39.89173219 -34.64233846 41.44192012 -30.75 43.6875 C-23.70191038 45.80192689 -18.65293224 45.32235472 -12.1171875 42.15625 C-7.73129512 39.37258398 -4.63897631 35.72942894 -3 30.8125 C-2.52614783 25.79432789 -2.20060282 21.34734259 -4.5625 16.8125 C-8.57847676 13.51733958 -12.27567845 12.00060781 -17.4375 11.4375 C-25.84706349 12.32271721 -30.38136256 15.41844025 -35.75 21.9375 Z " fill="#FF5404" transform="translate(1846,416.1875)"/>
<path d="M0 0 C7.06164086 -0.10207342 14.12308892 -0.17174631 21.18530273 -0.21972656 C23.58381256 -0.23974509 25.98227418 -0.26696833 28.38061523 -0.30175781 C31.84370882 -0.35070613 35.3061528 -0.37306731 38.76953125 -0.390625 C39.82831985 -0.41127014 40.88710846 -0.43191528 41.97798157 -0.45318604 C51.40284642 -0.45597706 60.62264224 1.55012715 67.5625 8.33984375 C73.37860287 15.05681038 73.81846661 22.08277701 73.44140625 30.734375 C72.61603856 41.08020957 67.55207394 49.11386879 60 56 C46.12423281 67.73871845 26.90044256 65.4568637 10 65 C9.9575415 65.62946533 9.91508301 66.25893066 9.87133789 66.9074707 C9.25672672 74.78230953 7.92922121 82.4363996 6.4375 90.1875 C6.20353516 91.42564453 5.96957031 92.66378906 5.72851562 93.93945312 C5.15696373 96.96051313 4.57913367 99.98038425 4 103 C-3.26 103 -10.52 103 -18 103 C-16.87496529 92.87468759 -16.87496529 92.87468759 -16.27905273 89.48318481 C-16.14449677 88.7094603 -16.0099408 87.93573578 -15.87130737 87.13856506 C-15.72686188 86.32471848 -15.58241638 85.51087189 -15.43359375 84.67236328 C-15.27899689 83.788293 -15.12440002 82.90422272 -14.96511841 81.99336243 C-14.45870649 79.10184738 -13.94823246 76.21106727 -13.4375 73.3203125 C-13.08242027 71.30015178 -12.72752405 69.27995879 -12.37280273 67.25973511 C-11.6315233 63.04165205 -10.88826839 58.82392336 -10.14355469 54.60644531 C-9.18841434 49.19653611 -8.23787165 43.78583117 -7.28874207 38.37486458 C-6.55782868 34.21052264 -5.82468997 30.04657492 -5.09085083 25.88274765 C-4.73934493 23.88692436 -4.38849175 21.89098601 -4.03829956 19.89493179 C-3.54990424 17.11331109 -3.05856368 14.33222671 -2.56640625 11.55126953 C-2.42196075 10.72527756 -2.27751526 9.89928558 -2.12869263 9.04826355 C-1.57697645 5.94515429 -0.9982523 2.99475691 0 0 Z M19 17 C17.5613558 22.53565267 16.36162083 28.05470045 15.375 33.6875 C15.17390625 34.78674805 15.17390625 34.78674805 14.96875 35.90820312 C14.30548269 39.66107787 13.93821348 43.19601021 14 47 C17.66639248 47.11728126 21.3322952 47.18760891 25 47.25 C26.02996094 47.28351563 27.05992188 47.31703125 28.12109375 47.3515625 C35.34063757 47.44353121 41.16903949 46.6564704 46.55444336 41.51635742 C50.56670165 36.93607951 51.38034892 33.10791123 51.265625 27.21875 C50.84100997 23.67196563 49.73445861 22.26759982 47 20 C40.69173809 17.10100686 34.79156681 16.60512327 27.9375 16.8125 C26.6390918 16.83280273 26.6390918 16.83280273 25.31445312 16.85351562 C23.20935826 16.8884067 21.10459026 16.94219335 19 17 Z " fill="#FF5404" transform="translate(1291,379)"/>
<path d="M0 0 C22.77 0 45.54 0 69 0 C67 14 67 14 66 17 C50.49 17 34.98 17 19 17 C18.67 19.97 18.34 22.94 18 26 C17.01 30.62 16.02 35.24 15 40 C28.53 40 42.06 40 56 40 C55 50 55 50 53 57 C39.47 57 25.94 57 12 57 C11.236875 61.62 10.47375 66.24 9.6875 71 C6.7175387 88.85543435 6.7175387 88.85543435 5.25 96.8125 C4.91742187 98.61654297 4.91742187 98.61654297 4.578125 100.45703125 C4 103 4 103 3 104 C1.43827255 104.08685603 -0.12729344 104.10702219 -1.69140625 104.09765625 C-2.63564453 104.09443359 -3.57988281 104.09121094 -4.55273438 104.08789062 C-5.54595703 104.07951172 -6.53917969 104.07113281 -7.5625 104.0625 C-8.55958984 104.05798828 -9.55667969 104.05347656 -10.58398438 104.04882812 C-13.05605138 104.03700005 -15.52798665 104.01967958 -18 104 C-17.43991701 93.05205998 -15.17827232 82.33574314 -13.18359375 71.58203125 C-12.8034498 69.51274864 -12.42374176 67.44338591 -12.04444885 65.37394714 C-11.05089892 59.95963331 -10.05147651 54.54641996 -9.05078125 49.13342285 C-7.84816164 42.62122811 -6.65292147 36.10767534 -5.45642853 29.59435272 C-3.6432364 19.72852292 -1.82074352 9.86445242 0 0 Z " fill="#FF5404" transform="translate(650,378)"/>
<path d="M0 0 C5.25953973 6.73878527 6.43131933 12.07306842 6 20.5625 C5.54839305 24.0572376 4.90752283 27.50752197 4.25 30.96875 C4.07243164 31.9340564 3.89486328 32.89936279 3.71191406 33.8939209 C3.14792344 36.95138938 2.57412535 40.00692014 2 43.0625 C1.61393197 45.14571273 1.22850864 47.22904504 0.84375 49.3125 C-0.09551969 54.39751175 -1.04805269 59.47978133 -2 64.5625 C-8.6 64.5625 -15.2 64.5625 -22 64.5625 C-21.67 62.5825 -21.34 60.6025 -21 58.5625 C-21.69222656 59.06910156 -21.69222656 59.06910156 -22.3984375 59.5859375 C-31.62537356 65.89526532 -41.11230322 66.48140441 -52 64.5625 C-57.36905477 62.84372177 -60.91297739 60.37825527 -64 55.5625 C-66.03173727 49.4672882 -65.78366936 42.44003065 -63.234375 36.51171875 C-59.48440334 30.59008628 -53.72311409 26.25181162 -47.1171875 24.03515625 C-40.24439976 22.50082541 -33.56414089 22.44077988 -26.5625 22.5 C-25.54478516 22.50451172 -24.52707031 22.50902344 -23.47851562 22.51367188 C-20.98561491 22.52537563 -18.49283926 22.54177152 -16 22.5625 C-16.38498345 17.8346714 -16.38498345 17.8346714 -18.375 13.6875 C-23.37995208 10.22253318 -30.22091118 11.06641322 -36 11.5625 C-39.00957615 12.41440722 -41.79230188 13.44548187 -44.66015625 14.6875 C-47 15.5625 -47 15.5625 -51 15.5625 C-51.69848264 13.62893218 -52.38344814 11.69047702 -53.0625 9.75 C-53.44535156 8.67105469 -53.82820312 7.59210938 -54.22265625 6.48046875 C-55 3.5625 -55 3.5625 -54 0.5625 C-38.91248602 -7.81392868 -14.31884862 -11.6340645 0 0 Z M-43 39.5625 C-44.43060128 42.42370256 -44.38692581 44.40260585 -44 47.5625 C-41.12160834 50.34804031 -38.42923034 50.78074066 -34.5625 50.9375 C-28.96437397 50.7239728 -25.53358898 48.78937118 -21.1875 45.3125 C-18.55266308 42.00013358 -18.45178932 39.70147312 -18 35.5625 C-21.04263267 35.45404973 -24.08136204 35.37497937 -27.125 35.3125 C-28.40890625 35.26222656 -28.40890625 35.26222656 -29.71875 35.2109375 C-35.48461373 35.1222319 -38.59301586 35.76094819 -43 39.5625 Z " fill="#FF5404" transform="translate(901,417.4375)"/>
<path d="M0 0 C5.79318489 7.42251814 6.6411798 13.31621048 6 22.5625 C5.23132085 28.53193127 4.14364376 34.4526793 3.06420898 40.37231445 C2.55826799 43.14821942 2.06611217 45.92630863 1.57617188 48.70507812 C1.26120276 50.47149451 0.94547551 52.23777593 0.62890625 54.00390625 C0.48095108 54.83402725 0.33299591 55.66414825 0.18055725 56.51942444 C-0.88272965 62.3279593 -0.88272965 62.3279593 -2 64.5625 C-8.27 64.5625 -14.54 64.5625 -21 64.5625 C-21.33 62.9125 -21.66 61.2625 -22 59.5625 C-22.85658203 60.08650391 -22.85658203 60.08650391 -23.73046875 60.62109375 C-32.592519 65.59454961 -42.17442632 67.00771255 -52.0703125 64.2890625 C-57.34702766 62.30228311 -60.82751068 59.14498457 -64 54.5625 C-66.21488352 47.91784943 -65.13896337 42.23798664 -62.38671875 35.9609375 C-58.68912791 29.5656677 -53.23988662 26.11622135 -46.2734375 24.0703125 C-39.72827479 22.60833457 -33.30810992 22.26301271 -26.625 22 C-25.60277344 21.95681641 -24.58054687 21.91363281 -23.52734375 21.86914062 C-21.01834712 21.76362208 -18.50926057 21.66150787 -16 21.5625 C-16.46916452 17.377841 -16.46916452 17.377841 -18.375 13.75 C-23.28682934 10.16058625 -30.25977787 10.9734379 -36 11.5625 C-39.35973559 12.64947328 -42.45169849 13.95006484 -45.63671875 15.46875 C-48 16.5625 -48 16.5625 -50 16.5625 C-50.86555948 14.46299414 -51.71711277 12.3577093 -52.5625 10.25 C-53.03816406 9.07824219 -53.51382812 7.90648437 -54.00390625 6.69921875 C-55 3.5625 -55 3.5625 -54 0.5625 C-38.91248602 -7.81392868 -14.31884862 -11.6340645 0 0 Z M-42 38.5625 C-44.1610211 41.80403166 -44.64247553 42.79942901 -44 46.5625 C-41.88732812 49.08407611 -40.21482882 50.33385351 -36.9453125 50.94921875 C-31.28783816 51.23307127 -26.51586643 50.05898349 -22 46.5625 C-19.10475063 43.04742259 -18 40.1899312 -18 35.5625 C-20.87557703 35.48111574 -23.74882262 35.42182149 -26.625 35.375 C-27.43324219 35.34986328 -28.24148438 35.32472656 -29.07421875 35.29882812 C-34.14230591 35.23702218 -37.63703837 35.68294532 -42 38.5625 Z " fill="#FF5404" transform="translate(1467,417.4375)"/>
<path d="M0 0 C5.47728177 6.14119471 6.44439216 12.29578401 6.33618164 20.32885742 C5.83728467 27.59067887 4.4775526 34.70102773 3.12670898 41.84594727 C2.61907419 44.5313477 2.12753613 47.21932793 1.63867188 49.90820312 C1.32382318 51.61995865 1.00810093 53.33155379 0.69140625 55.04296875 C0.54345108 55.84494186 0.39549591 56.64691498 0.24305725 57.47319031 C-0.81937981 63.07625962 -0.81937981 63.07625962 -1.9375 65.3125 C-8.2075 65.3125 -14.4775 65.3125 -20.9375 65.3125 C-21.2675 63.6625 -21.5975 62.0125 -21.9375 60.3125 C-22.79408203 60.83650391 -22.79408203 60.83650391 -23.66796875 61.37109375 C-32.530019 66.34454961 -42.11192632 67.75771255 -52.0078125 65.0390625 C-57.28452766 63.05228311 -60.76501068 59.89498457 -63.9375 55.3125 C-66.15238352 48.66784943 -65.07646337 42.98798664 -62.32421875 36.7109375 C-58.62662791 30.3156677 -53.17738662 26.86622135 -46.2109375 24.8203125 C-45.46070313 24.65273438 -44.71046875 24.48515625 -43.9375 24.3125 C-43.1021875 24.12558594 -42.266875 23.93867188 -41.40625 23.74609375 C-36.29102247 23.10669031 -31.2114874 23.20878274 -26.0625 23.25 C-24.45761719 23.25676758 -24.45761719 23.25676758 -22.8203125 23.26367188 C-20.19265014 23.27540251 -17.56510462 23.29181772 -14.9375 23.3125 C-15.33503821 21.84883658 -15.75631384 20.3916065 -16.1875 18.9375 C-16.53554687 17.71933594 -16.53554687 17.71933594 -16.890625 16.4765625 C-18.18087779 13.80939816 -19.18427439 13.2866733 -21.9375 12.3125 C-29.74231947 11.39176684 -36.37860153 12.31109748 -43.59765625 15.33984375 C-45.70781837 16.217023 -47.71021354 16.82383438 -49.9375 17.3125 C-50.64054222 15.58959395 -51.32433491 13.85882534 -52 12.125 C-52.38285156 11.16207031 -52.76570313 10.19914062 -53.16015625 9.20703125 C-54.01033627 6.04128556 -54.05193317 4.38115248 -52.9375 1.3125 C-37.79389197 -8.58908987 -15.46784549 -8.88578358 0 0 Z M-41.9375 39.3125 C-44.0985211 42.55403166 -44.57997553 43.54942901 -43.9375 47.3125 C-41.82482812 49.83407611 -40.15232882 51.08385351 -36.8828125 51.69921875 C-31.22533816 51.98307127 -26.45336643 50.80898349 -21.9375 47.3125 C-19.04225063 43.79742259 -17.9375 40.9399312 -17.9375 36.3125 C-20.81307703 36.23111574 -23.68632262 36.17182149 -26.5625 36.125 C-27.37074219 36.09986328 -28.17898438 36.07472656 -29.01171875 36.04882812 C-34.07980591 35.98702218 -37.57453837 36.43294532 -41.9375 39.3125 Z " fill="#FF5404" transform="translate(1181.9375,416.6875)"/>
<path d="M0 0 C5.944019 6.27424227 6.62832504 12.78078733 6.52368164 21.16650391 C6.1655038 28.52350972 4.68618353 35.76161837 3.31420898 42.98388672 C2.80579755 45.66028325 2.31455004 48.33941311 1.82617188 51.01953125 C1.51137839 52.72674011 1.19565849 54.43377848 0.87890625 56.140625 C0.73095108 56.93946106 0.58299591 57.73829712 0.43055725 58.56134033 C-0.63152057 64.13804114 -0.63152057 64.13804114 -1.75 66.375 C-8.68 66.375 -15.61 66.375 -22.75 66.375 C-21.88104771 59.85785786 -20.96437124 53.38981473 -19.7265625 46.93359375 C-19.54577148 45.98500488 -19.36498047 45.03641602 -19.17871094 44.05908203 C-18.81828102 42.1898683 -18.44956301 40.32222743 -18.07128906 38.45654297 C-16.85791674 32.14540129 -16.04886248 25.80140653 -16.75 19.375 C-18.6468843 16.71936198 -19.89485055 15.80257473 -22.75 14.375 C-29.52593198 13.84355435 -34.23113112 15.31410728 -39.5 19.625 C-44.01877826 25.14795121 -45.35258169 31.2893563 -46.57421875 38.15234375 C-46.72534622 38.96369278 -46.87647369 39.77504181 -47.03218079 40.61097717 C-47.50830418 43.17680393 -47.97307279 45.74453323 -48.4375 48.3125 C-48.76031653 50.06328971 -49.08387698 51.81394243 -49.40820312 53.56445312 C-50.19880804 57.83291085 -50.97399108 62.10376186 -51.75 66.375 C-58.68 66.375 -65.61 66.375 -72.75 66.375 C-71.625 55.125 -71.625 55.125 -70.62670898 49.73193359 C-70.40655624 48.53144379 -70.1864035 47.33095398 -69.95957947 46.09408569 C-69.72412918 44.83327179 -69.48867889 43.57245789 -69.24609375 42.2734375 C-69.00054524 40.94258051 -68.75535814 39.61165679 -68.51051331 38.28067017 C-67.87131419 34.81132022 -67.22727444 31.34288673 -66.58215332 27.87463379 C-65.92223251 24.3219206 -65.26698907 20.76834511 -64.61132812 17.21484375 C-63.32874359 10.26738675 -62.04060048 3.32097309 -60.75 -3.625 C-54.15 -3.625 -47.55 -3.625 -40.75 -3.625 C-40.255 -1.15 -40.255 -1.15 -39.75 1.375 C-39.07453125 1.02566406 -38.3990625 0.67632812 -37.703125 0.31640625 C-36.81109375 -0.13863281 -35.9190625 -0.59367187 -35 -1.0625 C-34.11828125 -1.51496094 -33.2365625 -1.96742188 -32.328125 -2.43359375 C-22.06632302 -7.17579012 -9.47267301 -5.5974886 0 0 Z " fill="#FF5404" transform="translate(821.75,415.625)"/>
<path d="M0 0 C5.04894303 4.55611791 8.56554078 9.06466391 9.17578125 15.99682617 C9.48237366 25.99839497 7.35202227 35.7085701 5.5625 45.5 C5.23290876 47.35141756 4.9041262 49.20297928 4.57617188 51.0546875 C4.26114491 52.8178386 3.94541532 54.58086435 3.62890625 56.34375 C3.48095108 57.16870972 3.33299591 57.99366943 3.18055725 58.84362793 C2.60680691 61.97760793 2.00895058 64.97314827 1 68 C-5.93 68 -12.86 68 -20 68 C-19.40326285 62.62936561 -18.81372247 57.57168237 -17.80859375 52.3125 C-17.58623047 51.11882812 -17.36386719 49.92515625 -17.13476562 48.6953125 C-16.66978704 46.23105622 -16.20103374 43.7675092 -15.72851562 41.3046875 C-13.07444496 29.3804981 -13.07444496 29.3804981 -16 18 C-18.96729726 15.71746365 -22.16191118 15.58055722 -25.84375 15.68359375 C-30.82409438 16.41440515 -34.68073628 18.60757932 -38.11328125 22.23046875 C-40.26507595 25.38910735 -41.05873492 27.90745924 -41.9375 31.625 C-42.09444336 32.28435547 -42.25138672 32.94371094 -42.41308594 33.62304688 C-45.02502198 44.99027338 -46.95260876 56.52118355 -49 68 C-55.93 68 -62.86 68 -70 68 C-69.37875331 59.8929839 -68.23323751 52.02604863 -66.75 44.03515625 C-66.53182617 42.8394249 -66.31365234 41.64369354 -66.08886719 40.41172791 C-65.63052105 37.90452246 -65.16987661 35.39773618 -64.70703125 32.89135742 C-63.99772765 29.0501943 -63.29512394 25.20785256 -62.59375 21.36523438 C-62.14621786 18.92180454 -61.69831437 16.47844268 -61.25 14.03515625 C-61.03956055 12.88725113 -60.82912109 11.73934601 -60.61230469 10.55665588 C-60.41540039 9.49132126 -60.21849609 8.42598663 -60.015625 7.32836914 C-59.84321289 6.39336075 -59.67080078 5.45835236 -59.49316406 4.49501038 C-59.06240059 2.31569641 -58.53878767 0.15515066 -58 -2 C-51.4 -2 -44.8 -2 -38 -2 C-38 -0.35 -38 1.3 -38 3 C-37.25234375 2.65066406 -36.5046875 2.30132812 -35.734375 1.94140625 C-34.74953125 1.48636719 -33.7646875 1.03132813 -32.75 0.5625 C-31.77546875 0.11003906 -30.8009375 -0.34242188 -29.796875 -0.80859375 C-21.46366835 -4.35835357 -7.80642344 -5.36468825 0 0 Z " fill="#FF5404" transform="translate(986,414)"/>
<path d="M0 0 C5.76943011 5.10110369 7.37894791 10.64392962 7.93280029 18.04785156 C8.03647094 22.60220388 7.39537155 26.90101904 6.6015625 31.375 C6.44714691 32.30675049 6.29273132 33.23850098 6.13363647 34.19848633 C5.64356657 37.13465206 5.13435085 40.06712494 4.625 43 C4.29046037 44.99589193 3.95711679 46.99198473 3.625 48.98828125 C3.01424274 52.62229649 2.40247056 56.25607173 1.77197266 59.88671875 C1.64682281 60.61076904 1.52167297 61.33481934 1.39273071 62.08081055 C1 64 1 64 0 67 C-6.93 67 -13.86 67 -21 67 C-20.39568079 61.56112707 -19.78093901 56.37114466 -18.80859375 51.0234375 C-18.58623047 49.775625 -18.36386719 48.5278125 -18.13476562 47.2421875 C-17.66843441 44.65581272 -17.19966862 42.06987576 -16.72851562 39.484375 C-16.50744141 38.23914063 -16.28636719 36.99390625 -16.05859375 35.7109375 C-15.85548584 34.58993652 -15.65237793 33.46893555 -15.44311523 32.31396484 C-14.81927054 27.64836273 -14.31255387 23.54675379 -16.25 19.1875 C-19.02360465 15.72049419 -20.85620919 15.13197586 -25.25 14.625 C-30.98525894 15.19852589 -35.13179874 17.23278259 -39.3125 21.1875 C-44.57550673 29.95917789 -45.51393646 40.64337416 -47.1875 50.5625 C-47.46224991 52.15961556 -47.73763529 53.75662194 -48.01367188 55.35351562 C-48.68430172 59.23430757 -49.34182735 63.11699438 -50 67 C-56.93 67 -63.86 67 -71 67 C-70.35415007 58.65747922 -69.18468248 50.5142795 -67.75 42.2734375 C-67.53182617 41.00400299 -67.31365234 39.73456848 -67.08886719 38.42666626 C-66.63105693 35.76555911 -66.17019167 33.10500524 -65.70703125 30.44482422 C-65.11281179 27.03052799 -64.52623454 23.61496911 -63.9418335 20.19898033 C-63.38182982 16.93144836 -62.81567608 13.66499232 -62.25 10.3984375 C-62.03956055 9.16942719 -61.82912109 7.94041687 -61.61230469 6.67416382 C-61.41540039 5.54854034 -61.21849609 4.42291687 -61.015625 3.26318359 C-60.84321289 2.26821869 -60.67080078 1.27325378 -60.49316406 0.24813843 C-60 -2 -60 -2 -59 -3 C-57.5112814 -3.08669432 -56.018555 -3.10703494 -54.52734375 -3.09765625 C-53.62822266 -3.09443359 -52.72910156 -3.09121094 -51.80273438 -3.08789062 C-50.85720703 -3.07951172 -49.91167969 -3.07113281 -48.9375 -3.0625 C-47.98810547 -3.05798828 -47.03871094 -3.05347656 -46.06054688 -3.04882812 C-43.70696935 -3.0370011 -41.35351523 -3.02052025 -39 -3 C-39 -1.35 -39 0.3 -39 2 C-38.33613281 1.65066406 -37.67226562 1.30132812 -36.98828125 0.94140625 C-36.10527344 0.48636719 -35.22226563 0.03132813 -34.3125 -0.4375 C-33.44238281 -0.88996094 -32.57226562 -1.34242188 -31.67578125 -1.80859375 C-22.0197744 -6.10798366 -9.00532615 -5.57065716 0 0 Z " fill="#FF5404" transform="translate(1768,415)"/>
<path d="M0 0 C5.15207916 3.55234682 8.71036671 8.29232343 10.7109375 14.1796875 C12.0611607 26.05212553 9.32396859 37.92997764 7.2109375 49.5546875 C6.87260591 51.46595285 6.53535852 53.37741045 6.19921875 55.2890625 C5.38422841 59.92206175 4.54721662 64.55028524 3.7109375 69.1796875 C-3.2190625 69.1796875 -10.1490625 69.1796875 -17.2890625 69.1796875 C-17.2890625 64.19206417 -17.13210102 60.53347898 -16.1953125 55.79296875 C-15.85693359 54.0130957 -15.85693359 54.0130957 -15.51171875 52.19726562 C-15.03361724 49.74602626 -14.55190205 47.29548869 -14.06640625 44.84570312 C-11.7819758 33.56550148 -11.7819758 33.56550148 -12.2890625 22.1796875 C-14.16787254 19.93327369 -15.67316979 18.48763385 -18.2890625 17.1796875 C-25.0551576 16.64901337 -29.72706951 18.14173853 -35.0390625 22.3671875 C-39.44666553 27.87669129 -40.75663897 34.51182992 -41.859375 41.328125 C-41.98593475 42.0667276 -42.11249451 42.8053302 -42.2428894 43.5663147 C-42.64073251 45.89458318 -43.02802244 48.22443564 -43.4140625 50.5546875 C-43.80891947 52.90603431 -44.20604251 55.25695787 -44.60665894 57.60733032 C-44.85414105 59.06240998 -45.09802951 60.51810648 -45.33792114 61.97445679 C-46.17785633 66.95727517 -46.17785633 66.95727517 -47.2890625 69.1796875 C-54.2190625 69.1796875 -61.1490625 69.1796875 -68.2890625 69.1796875 C-64.57306762 45.79000342 -60.62298093 22.46297267 -56.2890625 -0.8203125 C-49.6890625 -0.8203125 -43.0890625 -0.8203125 -36.2890625 -0.8203125 C-36.2890625 1.1596875 -36.2890625 3.1396875 -36.2890625 5.1796875 C-35.79277344 4.84195312 -35.29648438 4.50421875 -34.78515625 4.15625 C-34.10582031 3.71023438 -33.42648437 3.26421875 -32.7265625 2.8046875 C-32.06527344 2.36382812 -31.40398437 1.92296875 -30.72265625 1.46875 C-22.13563636 -3.07975171 -8.99669477 -4.12512206 0 0 Z " fill="#FF5404" transform="translate(1638.2890625,412.8203125)"/>
<path d="M0 0 C5.13236867 4.63140041 8.61236179 9.15398396 9.17578125 16.19750977 C9.44096163 25.77802334 7.73679069 34.97448264 6.06420898 44.36743164 C5.55711927 47.2177447 5.06551565 50.07041993 4.57617188 52.92382812 C4.26130084 54.73452898 3.94557765 56.5450819 3.62890625 58.35546875 C3.48095108 59.20948776 3.33299591 60.06350677 3.18055725 60.94340515 C2.11667295 66.88332705 2.11667295 66.88332705 1 68 C-0.56172745 68.08685603 -2.12729344 68.10702219 -3.69140625 68.09765625 C-4.63564453 68.09443359 -5.57988281 68.09121094 -6.55273438 68.08789062 C-7.54595703 68.07951172 -8.53917969 68.07113281 -9.5625 68.0625 C-10.55958984 68.05798828 -11.55667969 68.05347656 -12.58398438 68.04882812 C-15.05604849 68.03700007 -17.52799518 68.02051849 -20 68 C-19.81824219 66.96705811 -19.63648438 65.93411621 -19.44921875 64.86987305 C-18.76894635 60.98930339 -18.1010054 57.10669057 -17.43652344 53.22338867 C-17.14879978 51.55192022 -16.85785918 49.88100188 -16.56347656 48.21069336 C-13.86068436 34.68113688 -13.86068436 34.68113688 -14 21 C-15.8968843 18.34436198 -17.14485055 17.42757473 -20 16 C-26.32408612 15.45482016 -30.81609309 16.21168509 -36 20 C-40.34627528 25.20517481 -41.97981723 30.67787965 -43.0625 37.25 C-43.38099971 39.00009302 -43.70002703 40.75009009 -44.01953125 42.5 C-44.17760254 43.3971875 -44.33567383 44.294375 -44.49853516 45.21875 C-45.3443855 49.91004849 -46.30374586 54.57813714 -47.25 59.25 C-47.8275 62.1375 -48.405 65.025 -49 68 C-55.93 68 -62.86 68 -70 68 C-68.45788411 55.35127895 -66.2950593 42.84148681 -64.05883789 30.29858398 C-63.43212867 26.78236359 -62.81042906 23.26528387 -62.18945312 19.74804688 C-61.79195533 17.50515716 -61.39417914 15.26231675 -60.99609375 13.01953125 C-60.81066513 11.97166946 -60.62523651 10.92380768 -60.43418884 9.8441925 C-60.26053299 8.87185165 -60.08687714 7.8995108 -59.90795898 6.89770508 C-59.75632797 6.04582108 -59.60469696 5.19393707 -59.44847107 4.3162384 C-59.0378641 2.1955584 -58.52389277 0.09557108 -58 -2 C-51.4 -2 -44.8 -2 -38 -2 C-38 -0.35 -38 1.3 -38 3 C-37.25234375 2.65066406 -36.5046875 2.30132812 -35.734375 1.94140625 C-34.74953125 1.48636719 -33.7646875 1.03132813 -32.75 0.5625 C-31.77546875 0.11003906 -30.8009375 -0.34242188 -29.796875 -0.80859375 C-21.46366835 -4.35835357 -7.80642344 -5.36468825 0 0 Z " fill="#FF5404" transform="translate(1552,414)"/>
<path d="M0 0 C4.22478334 3.23567799 7.67688605 6.7075442 9 12 C9 12.99 9 13.98 9 15 C6.3773768 16.33819498 3.75213401 17.6707151 1.125 19 C0.37863281 19.3815625 -0.36773438 19.763125 -1.13671875 20.15625 C-1.85214844 20.5171875 -2.56757812 20.878125 -3.3046875 21.25 C-3.96452637 21.58515625 -4.62436523 21.9203125 -5.30419922 22.265625 C-7 23 -7 23 -9 23 C-9.86625 21.6078125 -9.86625 21.6078125 -10.75 20.1875 C-13.35049787 16.50346135 -14.71323923 15.3495358 -19 14 C-25.61680816 13.52656569 -30.78668119 15.19332648 -36.08203125 19.1484375 C-41.09594855 23.98875685 -42.224453 29.45317401 -42.5 36.25 C-42.36491191 40.04211556 -42.1317019 41.76481804 -40.25 45.125 C-35.72679382 48.89433848 -32.24430325 49.38578759 -26.46484375 49.25 C-21.51685141 48.74814341 -18.7458142 46.78132916 -15.375 43.25 C-14.59125 42.5075 -13.8075 41.765 -13 41 C-9.1397906 41.30023851 -6.00257532 43.61802563 -2.75 45.5625 C-1.13351562 46.52349609 -1.13351562 46.52349609 0.515625 47.50390625 C1.33546875 47.99761719 2.1553125 48.49132812 3 49 C-1.93821089 57.48976085 -9.31656807 63.23727782 -18.61328125 66.43359375 C-30.20761078 69.18511221 -42.60200524 68.86893227 -52.9296875 62.5390625 C-59.41340542 57.71909107 -63.54467972 51.9912676 -65 44 C-66.33813224 33.04404227 -63.27666695 21.95117747 -56.75 13.05859375 C-43.62842204 -2.3768339 -18.70323034 -10.82318913 0 0 Z " fill="#FF5404" transform="translate(1070,415)"/>
<path d="M0 0 C6.93 0 13.86 0 21 0 C20.29534987 10.69381003 18.33013364 21.12335872 16.4375 31.65625 C16.08226074 33.65110319 15.72736735 35.646018 15.37280273 37.64099121 C14.63258699 41.80024104 13.88928914 45.95892367 13.14355469 50.1171875 C12.18717485 55.45058475 11.23692433 60.78505115 10.28874207 66.11991119 C9.55795786 70.22937481 8.82481 74.33841376 8.09085083 78.4473114 C7.73945533 80.4152419 7.38860227 82.38326934 7.03829956 84.35139465 C6.54994952 87.09209929 6.05862347 89.83225324 5.56640625 92.57226562 C5.42196075 93.38576477 5.27751526 94.19926392 5.12869263 95.03741455 C4.57403535 98.11046743 3.98901182 101.03296454 3 104 C-3.93 104 -10.86 104 -18 104 C-16.41073652 92.25357705 -14.39444436 80.61108932 -12.3046875 68.9453125 C-11.94861348 66.94753675 -11.59275168 64.94972317 -11.23709106 62.95187378 C-10.30872862 57.74024304 -9.37751904 52.5291251 -8.44567871 47.31811523 C-7.49198525 41.98191983 -6.54103628 36.64523542 -5.58984375 31.30859375 C-3.72922066 20.87191991 -1.86532999 10.43583361 0 0 Z " fill="#FF5404" transform="translate(1215,378)"/>
<path d="M0 0 C6.93 0 13.86 0 21 0 C20.34198395 6.58016051 19.58953854 12.95701542 18.43359375 19.44116211 C18.27899689 20.32537842 18.12440002 21.20959473 17.96511841 22.12060547 C17.45951217 25.00683055 16.94865047 27.89209584 16.4375 30.77734375 C16.08234546 32.79606205 15.72745054 34.81482604 15.37280273 36.83363342 C14.63202589 41.04583061 13.88874938 45.25757634 13.14355469 49.46899414 C12.18782082 54.87092374 11.23741895 60.27377471 10.28874207 65.67694759 C9.55789874 69.83701106 8.82475275 73.996666 8.09085083 78.15619087 C7.73939196 80.1492312 7.38853881 82.14237845 7.03829956 84.13563347 C6.54993867 86.91236245 6.05860058 89.68854793 5.56640625 92.46459961 C5.42196075 93.28902054 5.27751526 94.11344147 5.12869263 94.96284485 C4.57661352 98.06206596 3.99705527 101.0088342 3 104 C-3.93 104 -10.86 104 -18 104 C-16.8749784 93.87480563 -16.8749784 93.87480563 -16.27905273 90.48991394 C-16.14449677 89.71763458 -16.0099408 88.94535522 -15.87130737 88.14967346 C-15.72686188 87.33739792 -15.58241638 86.52512238 -15.43359375 85.68823242 C-15.27899689 84.80576843 -15.12440002 83.92330444 -14.96511841 83.01409912 C-14.4586641 80.12739749 -13.94817511 77.24142642 -13.4375 74.35546875 C-13.08239531 72.33770809 -12.72749952 70.31991065 -12.37280273 68.30207825 C-11.63147187 64.0882002 -10.88825049 59.8746616 -10.14355469 55.66137695 C-9.18900615 50.26043234 -8.23823325 44.8588317 -7.28874207 39.45699596 C-6.55727626 35.29700008 -5.82431628 31.13726863 -5.09085083 26.97762489 C-4.73964737 24.98536608 -4.38879486 22.99304537 -4.03829956 21.00066185 C-3.54911416 18.22178195 -3.05803745 15.44324302 -2.56640625 12.66479492 C-2.34973801 11.43119987 -2.34973801 11.43119987 -2.12869263 10.17268372 C-1.51997579 6.74275726 -0.845413 3.38165199 0 0 Z " fill="#FF5404" transform="translate(1383,378)"/>
<path d="M0 0 C6.93 0 13.86 0 21 0 C20.40902806 5.31874742 19.8260908 10.3942817 18.87670898 15.62133789 C18.65655624 16.84192398 18.4364035 18.06251007 18.20957947 19.32008362 C17.97412918 20.60793259 17.73867889 21.89578156 17.49609375 23.22265625 C17.25063499 24.57738014 17.00544609 25.93215296 16.76051331 27.28697205 C16.12040859 30.82356023 15.47668067 34.3594792 14.83215332 37.89526367 C14.17298923 41.51505931 13.51731278 45.13548646 12.86132812 48.75585938 C11.5775994 55.83785721 10.28971357 62.91908915 9 70 C2.07 70 -4.86 70 -12 70 C-11.41038807 61.49909381 -10.30705831 53.27596576 -8.75 44.90234375 C-8.53182617 43.70565567 -8.31365234 42.50896759 -8.08886719 41.27601624 C-7.63095541 38.77051127 -7.17030969 36.26550453 -6.70703125 33.76098633 C-5.99638364 29.91794346 -5.29437607 26.07339691 -4.59375 22.22851562 C-4.14633162 19.78636699 -3.6984323 17.34430641 -3.25 14.90234375 C-3.03956055 13.7524144 -2.82912109 12.60248505 -2.61230469 11.41770935 C-2.41540039 10.35552689 -2.21849609 9.29334442 -2.015625 8.19897461 C-1.84321289 7.26476181 -1.67080078 6.33054901 -1.49316406 5.36802673 C-1 3 -1 3 0 0 Z " fill="#FF5404" transform="translate(723,412)"/>
<path d="M0 0 C6.93 0 13.86 0 21 0 C20.35415007 8.34252078 19.18468248 16.4857205 17.75 24.7265625 C17.42273926 26.63071426 17.42273926 26.63071426 17.08886719 28.57333374 C16.63105693 31.23444089 16.17019167 33.89499476 15.70703125 36.55517578 C15.11281179 39.96947201 14.52623454 43.38503089 13.9418335 46.80101967 C13.38182982 50.06855164 12.81567608 53.33500768 12.25 56.6015625 C12.03956055 57.83057281 11.82912109 59.05958313 11.61230469 60.32583618 C11.41540039 61.45145966 11.21849609 62.57708313 11.015625 63.73681641 C10.84321289 64.73178131 10.67080078 65.72674622 10.49316406 66.75186157 C10 69 10 69 9 70 C7.43827255 70.08685603 5.87270656 70.10702219 4.30859375 70.09765625 C3.36435547 70.09443359 2.42011719 70.09121094 1.44726562 70.08789062 C0.45404297 70.07951172 -0.53917969 70.07113281 -1.5625 70.0625 C-2.55958984 70.05798828 -3.55667969 70.05347656 -4.58398438 70.04882812 C-7.05604849 70.03700007 -9.52799518 70.02051849 -12 70 C-8.15117438 46.6389073 -4.15998088 23.3076943 0 0 Z " fill="#FF5404" transform="translate(1670,412)"/>
<path d="M0 0 C6.93 0 13.86 0 21 0 C20.37063444 8.18517272 19.21633865 16.14462457 17.75 24.21875 C17.53182617 25.43904907 17.31365234 26.65934814 17.08886719 27.91662598 C16.63047347 30.47508919 16.16982929 33.03315013 15.70703125 35.59082031 C14.99722492 39.51534345 14.29493902 43.44111659 13.59375 47.3671875 C13.14627042 49.85945352 12.69836884 52.35164381 12.25 54.84375 C12.03956055 56.01869019 11.82912109 57.19363037 11.61230469 58.4041748 C11.41540039 59.48960571 11.21849609 60.57503662 11.015625 61.69335938 C10.84321289 62.64835327 10.67080078 63.60334717 10.49316406 64.58728027 C10 67 10 67 9 70 C2.07 70 -4.86 70 -12 70 C-10.26677655 55.40705542 -7.53754439 41.01009215 -4.875 26.5625 C-4.40201466 23.98118007 -3.92935568 21.39980032 -3.45703125 18.81835938 C-2.3084505 12.54487661 -1.15545099 6.27222088 0 0 Z " fill="#FF5404" transform="translate(1092,412)"/>
<path d="M0 0 C18.52421315 -1.45634521 18.52421315 -1.45634521 23.98828125 1.7578125 C26.91329159 5.33080649 27.90089577 8.04199249 28.375 12.625 C26.08213474 18.252942 21.9839185 21.67738767 17 25 C14.73168945 25.22705078 14.73168945 25.22705078 12.11328125 25.1953125 C11.17548828 25.18886719 10.23769531 25.18242187 9.27148438 25.17578125 C7.80678711 25.15064453 7.80678711 25.15064453 6.3125 25.125 C5.32443359 25.11597656 4.33636719 25.10695313 3.31835938 25.09765625 C0.87866235 25.0740843 -1.56054697 25.04118022 -4 25 C-3.05150108 23.875895 -2.10049351 22.75390644 -1.1484375 21.6328125 C-0.61911621 21.00777832 -0.08979492 20.38274414 0.45556641 19.73876953 C2 18 2 18 4.375 15.875 C6.20360174 14.1163372 6.20360174 14.1163372 6.2890625 11.68359375 C5.93846777 8.42874808 4.89530233 6.83302617 3 4.1875 C2.443125 3.39730469 1.88625 2.60710937 1.3125 1.79296875 C0.879375 1.20128906 0.44625 0.60960937 0 0 Z " fill="#FF5404" transform="translate(1676,378)"/>
<path d="M0 0 C18.70620906 -1.45791797 18.70620906 -1.45791797 23.765625 1.7578125 C26.26183207 5.33247797 26.92144842 8.25375998 27.375 12.5625 C25.27811665 17.80470839 21.11580617 22.44209691 16 25 C14.40552536 25.08400529 12.80759455 25.10727467 11.2109375 25.09765625 C10.26992187 25.09443359 9.32890625 25.09121094 8.359375 25.08789062 C6.88210938 25.07532227 6.88210938 25.07532227 5.375 25.0625 C4.38242188 25.05798828 3.38984375 25.05347656 2.3671875 25.04882812 C-0.0886016 25.03702145 -2.54427104 25.020554 -5 25 C-4.05150108 23.875895 -3.10049351 22.75390644 -2.1484375 21.6328125 C-1.61911621 21.00777832 -1.08979492 20.38274414 -0.54443359 19.73876953 C1 18 1 18 3.375 15.875 C5.16204294 14.10206583 5.16204294 14.10206583 5.5625 11.6875 C4.84699258 8.26896453 3.24914493 6.25101212 1.09375 3.55078125 C0 2 0 2 0 0 Z " fill="#FF5404" transform="translate(1099,378)"/>
<path d="M0 0 C3.37381807 -0.23373107 6.74555001 -0.37483519 10.125 -0.5 C11.07632813 -0.56703125 12.02765625 -0.6340625 13.0078125 -0.703125 C19.97091616 -0.89654455 19.97091616 -0.89654455 22.97900391 1.72412109 C28.2301785 8.62660846 28.2301785 8.62660846 28 13 C25.47671145 17.94144009 21.81870865 22.19808285 17 25 C13.31572978 25.70174887 9.79556085 25.57402853 6.0625 25.375 C4.6074707 25.33439453 4.6074707 25.33439453 3.12304688 25.29296875 C0.74634651 25.22272145 -1.62562471 25.12444649 -4 25 C-3.05150108 23.875895 -2.10049351 22.75390644 -1.1484375 21.6328125 C-0.61911621 21.00777832 -0.08979492 20.38274414 0.45556641 19.73876953 C2 18 2 18 4.375 15.875 C6.20360174 14.1163372 6.20360174 14.1163372 6.2890625 11.68359375 C5.93846777 8.42874808 4.89530233 6.83302617 3 4.1875 C2.443125 3.39730469 1.88625 2.60710937 1.3125 1.79296875 C0.879375 1.20128906 0.44625 0.60960937 0 0 Z " fill="#FF5404" transform="translate(729,378)"/>
</svg>
